# xmcd CD database file
# Copyright (C) 1993-1998 Ti Kan
#
# Track frame offsets:
#  150
#  9660
#  22020
#  32217
#  45032
#  57280
#  66562
#  78270
#  89907
#  99732
#  110595
#  120757
#  131525
#  143035
#  155657
#  168492
#  178362
#  188697
#
# Disc length: 2678 seconds
#
# Revision: 1
# Processed by: cddbd v1.4b41PL1 Copyright (c) Steve Scherf et al.
# Submitted via: CDWizzard Release:4.35
#
DISCID=f70a7412
DTITLE=Impressions - Their Complete Vee-Jay Recordings
DYEAR=1900
DGENRE=
TTITLE0=Sweet Was The Wine
TTITLE1=For Your Precious Love
TTITLE2=Lover's Lane
TTITLE3=Don't Drive Me Away
TTITLE4=The Gift Of Love
TTITLE5=At The County Fair aka Chu-Chu Cha
TTITLE6=Come Back My Love
TTITLE7=Love Me
TTITLE8=Young Lover
TTITLE9=Lovely One
TTITLE10=Lovely One (Previously Unissued  Alternate Take)
TTITLE11=A Long Time Ago
TTITLE12=Senorita I Love You
TTITLE13=Give Me Your Love
TTITLE14=That You Love Me
TTITLE15=A New Love
TTITLE16=Believe In Me
TTITLE17=Let Me Know
EXTD=
EXTT0=
EXTT1=
EXTT2=
EXTT3=
EXTT4=
EXTT5=
EXTT6=
EXTT7=
EXTT8=
EXTT9=
EXTT10=
EXTT11=
EXTT12=
EXTT13=
EXTT14=
EXTT15=
EXTT16=
EXTT17=
PLAYORDER=
